<?xml version="1.0" encoding="UTF-8"?>
<svg width="32px" height="32px" viewBox="0 0 32 32" version="1.1" xmlns="http://www.w3.org/2000/svg" xmlns:xlink="http://www.w3.org/1999/xlink">
    <title>favicon</title>
    <g id="favicon" stroke="none" stroke-width="1" fill="none" fill-rule="evenodd">
        <g id="H" transform="translate(3.000000, 3.000000)" fill="#975E00" fill-rule="nonzero">
            <path d="M3.09959623,21.1613352 L3.09959623,21.4283727 C3.09959623,23.1307371 2.80888291,23.5980529 1.80753701,23.6981919 C1.19380888,23.7649513 1,23.9318498 1,24.3657858 C1,24.7997218 1.25841184,25 1.87213997,25 L7.88021534,25 C8.49394347,25 8.7846568,24.7997218 8.7846568,24.3991655 C8.7846568,23.9318498 8.59084791,23.7649513 7.97711978,23.6981919 C7.36339166,23.6314325 7.10497981,23.3977747 6.91117093,22.930459 C6.78196501,22.4965229 6.78196501,22.2628651 6.78196501,21.1613352 L6.78196501,14.418637 C6.78196501,13.4172462 7.10497981,13.0834492 8.00942127,13.0834492 L17.9905787,13.1168289 C18.9596231,13.1168289 19.218035,13.3838665 19.218035,14.3852573 L19.218035,21.1613352 C19.218035,23.1307371 18.9596231,23.5980529 17.9582773,23.6981919 C17.3445491,23.7649513 17.1507402,23.9318498 17.1507402,24.3657858 C17.1507402,24.7997218 17.4414536,25 18.0228802,25 L24.0955585,25 C24.7092867,25 24.9676985,24.7997218 24.9676985,24.3991655 C24.9676985,23.9318498 24.8061911,23.7649513 24.1601615,23.6981919 C23.5787349,23.6314325 23.2880215,23.3977747 23.1588156,22.930459 C23.0296097,22.4965229 22.9973082,22.2628651 22.9973082,21.1613352 L22.9973082,4.83866481 C22.9973082,2.83588317 23.1911171,2.40194715 24.2247645,2.30180807 C24.8061911,2.23504868 25,2.1015299 25,1.66759388 C25,1.23365786 24.7415882,1 24.0955585,1 L18.0874832,1 C17.5060565,1 17.1830417,1.23365786 17.1830417,1.60083449 C17.1830417,2.1015299 17.3768506,2.23504868 17.9905787,2.30180807 C18.9919246,2.40194715 19.218035,2.86926287 19.218035,4.83866481 L19.218035,9.84561892 C19.218035,10.81363 18.8950202,11.1808067 17.9905787,11.1808067 L8.04172275,11.1808067 C7.10497981,11.1808067 6.78196501,10.8470097 6.78196501,9.87899861 L6.78196501,4.83866481 C6.78196501,2.83588317 7.04037685,2.40194715 7.97711978,2.30180807 C8.59084791,2.23504868 8.7846568,2.1015299 8.7846568,1.66759388 C8.7846568,1.16689847 8.49394347,1 7.91251682,1 L1.93674293,1 C1.3230148,1 1.03230148,1.23365786 1.03230148,1.60083449 C1.03230148,2.1015299 1.22611036,2.23504868 1.87213997,2.30180807 C2.84118439,2.40194715 3.09959623,2.86926287 3.09959623,4.83866481 L3.09959623,20.4603616 L3.09959623,21.1613352 Z" id="Path"></path>
        </g>
    </g>
</svg>